HIERARCHY
ROOT Hips
{
	OFFSET 0.000000 0.000000 0.000000
	CHANNELS 6 Xposition Yposition Zposition Zrotation Yrotation Xrotation 
	JOINT LowerBack
	{
		OFFSET 0.000000 0.000000 0.000000
		CHANNELS 3 Zrotation Yrotation Xrotation
		JOINT Spine
		{
			OFFSET 0.028270 2.035590 -0.193380
			CHANNELS 3 Zrotation Yrotation Xrotation
			JOINT Spine1
			{
				OFFSET 0.056720 2.048850 -0.042750
				CHANNELS 3 Zrotation Yrotation Xrotation
				JOINT Neck
				{
					OFFSET 0.000000 0.000000 0.000000
					CHANNELS 3 Zrotation Yrotation Xrotation
					JOINT Neck1
					{
						OFFSET -0.054170 1.746240 0.172020
						CHANNELS 3 Zrotation Yrotation Xrotation
						JOINT Head
						{
							OFFSET 0.104070 1.761360 -0.123970
							CHANNELS 3 Zrotation Yrotation Xrotation
							End Site
							{
								OFFSET 0.000000 0.000000 0.000000
							}
						}
					}
				}
				JOINT LeftShoulder
				{
					OFFSET 0.000000 0.000000 0.000000
					CHANNELS 3 Zrotation Yrotation Xrotation
					JOINT LeftArm
					{
						OFFSET 3.362410 1.200890 -0.311210
						CHANNELS 3 Zrotation Yrotation Xrotation
						JOINT LeftForeArm
						{
							OFFSET 4.983000 -0.000000 -0.000000
							CHANNELS 3 Zrotation Yrotation Xrotation
							JOINT LeftHand
							{
								OFFSET 3.483560 -0.000000 -0.000000
								CHANNELS 3 Zrotation Yrotation Xrotation
								JOINT LeftFingerBase
								{
									OFFSET 0.000000 0.000000 0.000000
									CHANNELS 3 Zrotation Yrotation Xrotation
									JOINT LeftHandIndex1
									{
										OFFSET 0.715260 -0.000000 -0.000000
										CHANNELS 3 Zrotation Yrotation Xrotation
										End Site
										{
											OFFSET 0.000000 0.000000 0.000000
										}
									}
								}
								JOINT LThumb
								{
									OFFSET 0.000000 0.000000 0.000000
									CHANNELS 3 Zrotation Yrotation Xrotation
									End Site
									{
										OFFSET 0.000000 0.000000 0.000000
									}
								}
							}
						}
					}
				}
				JOINT RightShoulder
				{
					OFFSET 0.000000 0.000000 0.000000
					CHANNELS 3 Zrotation Yrotation Xrotation
					JOINT RightArm
					{
						OFFSET -3.136600 1.374050 -0.404650
						CHANNELS 3 Zrotation Yrotation Xrotation
						JOINT RightForeArm
						{
							OFFSET -5.241900 -0.000000 -0.000000
							CHANNELS 3 Zrotation Yrotation Xrotation
							JOINT RightHand
							{
								OFFSET -3.444170 -0.000000 -0.000000
								CHANNELS 3 Zrotation Yrotation Xrotation
								JOINT RightFingerBase
								{
									OFFSET 0.000000 0.000000 0.000000
									CHANNELS 3 Zrotation Yrotation Xrotation
									JOINT RightHandIndex1
									{
										OFFSET -0.622530 -0.000000 -0.000000
										CHANNELS 3 Zrotation Yrotation Xrotation
										End Site
										{
											OFFSET 0.000000 0.000000 0.000000
										}
									}
								}
								JOINT RThumb
								{
									OFFSET 0.000000 0.000000 0.000000
									CHANNELS 3 Zrotation Yrotation Xrotation
									End Site
									{
										OFFSET 0.000000 0.000000 0.000000
									}
								}
							}
						}
					}
				}
			}
		}
	}
}
}
MOTION
Frames: 18
Frame Time: 0.008333
8.440355 16.462181 0.612298 97.646834 83.035833 113.721315 -6.454385 -1.210766 -7.658104 -2.039787 -0.772162 -4.209468 -7.346967 -0.579901 -0.858963 11.103115 -11.555267 -7.449946 -4.598042 -0.363011 0.031376 0.000000 0.000000 0.000000 4.939477 10.042502 -2.547030 -72.861429 -13.582195 13.825092 -179.226159 -65.295263 179.782093 28.545035 -23.298051 -6.505461 -0.811904 1.290857 -0.000000 0.000000 0.000000 0.000000 0.000000 0.000000 0.000000 14.954482 -6.131345 -1.811496 79.400331 -2.359711 24.997114 -179.441757 78.338841 179.872874 -16.764250 29.620365 -4.694256 0.244434 -1.044195 0.000000 0.000000 0.000000 0.000000 0.000000 0.000000 0.000000 
8.672523 16.550265 0.627361 101.505540 83.140089 117.568456 -6.168993 -1.635088 -7.765896 -1.902100 -1.215649 -4.212052 -7.199467 -1.043725 -0.866349 10.922956 -12.129116 -7.390029 -4.501271 -0.356754 0.064370 0.000000 0.000000 0.000000 5.179538 8.954129 -2.596515 -72.993731 -14.503837 14.686598 -179.222661 -65.008450 179.776810 28.360030 -23.443790 -6.513157 -0.819289 1.325719 -0.000000 0.000000 0.000000 0.000000 0.000000 0.000000 0.000000 14.274387 -7.122706 -1.806267 78.766138 -3.887670 24.885264 -179.446238 77.682113 179.872465 -16.631507 29.852597 -4.691183 0.234941 -1.039752 -0.000000 0.000000 0.000000 0.000000 0.000000 0.000000 0.000000 
8.909709 16.648935 0.639045 105.588523 83.265158 121.642776 -5.809249 -2.065143 -7.914603 -1.744834 -1.672723 -4.221111 -7.031220 -1.522000 -0.850753 10.704059 -12.720801 -7.352190 -4.396503 -0.349803 0.091989 0.000000 0.000000 0.000000 5.387396 7.972734 -2.639596 -73.122055 -15.305649 15.593619 -179.215093 -64.700531 179.773190 28.122121 -23.606089 -6.511976 -0.826247 1.360225 -0.000000 0.000000 0.000000 0.000000 0.000000 0.000000 0.000000 13.533743 -8.105880 -1.814847 78.034731 -5.339315 24.858573 -179.458457 76.992194 179.872669 -16.473905 30.078529 -4.679707 0.226386 -1.035742 0.000000 0.000000 0.000000 0.000000 0.000000 0.000000 0.000000 
9.151321 16.757115 0.647785 109.808406 83.413508 125.845162 -5.381130 -2.491450 -8.090321 -1.570100 -2.133411 -4.236917 -6.843384 -2.004872 -0.822281 10.449029 -13.325765 -7.327477 -4.287255 -0.342477 0.116210 0.000000 0.000000 0.000000 5.559777 7.068945 -2.675092 -73.260350 -15.960720 16.523119 -179.206828 -64.380911 179.771255 27.823009 -23.775533 -6.497033 -0.832009 1.393707 -0.000000 0.000000 0.000000 0.000000 0.000000 0.000000 0.000000 12.750688 -9.074523 -1.832794 77.205744 -6.702224 24.899557 -179.478946 76.293904 179.873513 -16.286485 30.270621 -4.654036 0.218672 -1.031469 0.000000 0.000000 0.000000 0.000000 0.000000 0.000000 0.000000 
9.396675 16.873549 0.653990 114.102333 83.594347 130.100790 -4.887740 -2.904058 -8.276308 -1.380184 -2.587620 -4.257396 -6.640163 -2.481899 -0.784455 10.164410 -13.941610 -7.312802 -4.175890 -0.334923 0.137333 0.000000 0.000000 0.000000 5.688703 6.242311 -2.702191 -73.419228 -16.483463 17.474757 -179.198262 -64.074524 179.771010 27.458731 -23.936565 -6.462351 -0.836193 1.425366 -0.000000 0.000000 0.000000 0.000000 0.000000 0.000000 0.000000 11.944655 -10.024446 -1.858033 76.284863 -7.961540 24.990430 -179.507644 75.605075 179.874998 -16.065650 30.406616 -4.609375 0.211725 -1.026463 0.000000 0.000000 0.000000 0.000000 0.000000 0.000000 0.000000 
9.644928 16.996654 0.658066 118.462910 83.820793 134.388967 -4.329498 -3.293501 -8.453181 -1.176929 -3.025902 -4.280557 -6.425135 -2.943351 -0.743790 9.856007 -14.563419 -7.302566 -4.064431 -0.327299 0.156453 0.000000 0.000000 0.000000 5.775537 5.479708 -2.720841 -73.612201 -16.876041 18.438964 -179.191594 -63.795885 179.772341 27.022116 -24.073466 -6.401853 -0.838179 1.454537 -0.000000 0.000000 0.000000 0.000000 0.000000 0.000000 0.000000 11.128201 -10.949556 -1.886814 75.282955 -9.109135 25.110787 -179.543689 74.936051 179.877063 -15.811197 30.473228 -4.544031 0.205440 -1.020498 -0.000000 0.000000 0.000000 0.000000 0.000000 0.000000 0.000000 
9.895225 17.124483 0.660290 122.979696 84.107349 138.788752 -3.703570 -3.651795 -8.601861 -0.961537 -3.440503 -4.304462 -6.201484 -3.381227 -0.706978 9.529054 -15.184873 -7.291281 -3.954118 -0.319710 0.174739 0.000000 0.000000 0.000000 5.827978 4.766490 -2.731901 -73.855731 -17.139942 19.404371 -179.189643 -63.555038 179.775055 26.505841 -24.170157 -6.309475 -0.837284 1.480618 -0.000000 0.000000 0.000000 0.000000 0.000000 0.000000 0.000000 10.307200 -11.843027 -1.914887 74.215705 -10.143774 25.239963 -179.585420 74.289755 179.879581 -15.527488 30.467039 -4.459201 0.199720 -1.013597 -0.000000 0.000000 0.000000 0.000000 0.000000 0.000000 0.000000 
10.146716 17.254747 0.660894 127.867914 84.464944 143.507896 -3.004535 -3.973062 -8.705088 -0.734520 -3.825803 -4.327875 -5.971068 -3.789800 -0.681897 9.187351 -15.798505 -7.272810 -3.845384 -0.312228 0.193660 0.000000 0.000000 0.000000 5.861417 4.081195 -2.737454 -74.168029 -17.268399 20.353318 -179.196744 -63.353309 179.778869 25.902877 -24.212064 -6.180045 -0.832702 1.503118 -0.000000 0.000000 0.000000 0.000000 0.000000 0.000000 0.000000 9.479441 -12.697674 -1.937064 73.101279 -11.069485 25.359781 -179.630599 73.663118 179.882372 -15.225480 30.392946 -4.359286 0.194542 -1.005989 -0.000000 0.000000 0.000000 0.000000 0.000000 0.000000 0.000000 
10.398779 17.384898 0.660109 133.484473 84.893726 148.904126 -2.229864 -4.254669 -8.753288 -0.497088 -4.178967 -4.349789 -5.736918 -4.165954 -0.671093 8.837452 -16.393667 -7.245916 -3.737909 -0.304813 0.213364 0.000000 0.000000 0.000000 5.890063 3.429054 -2.739002 -74.564486 -17.284926 21.285621 -179.213571 -63.198507 179.783519 25.216278 -24.183238 -6.011290 -0.824236 1.521561 -0.000000 0.000000 0.000000 0.000000 0.000000 0.000000 0.000000 8.645086 -13.502761 -1.951840 71.957198 -11.898861 25.451902 -179.676220 73.042822 179.885203 -14.919286 30.262107 -4.250681 0.189910 -0.998150 -0.000000 0.000000 0.000000 0.000000 0.000000 0.000000 0.000000 
10.651011 17.512221 0.658669 140.209471 85.375042 155.366145 -1.395802 -4.497753 -8.744908 -0.253153 -4.498257 -4.373142 -5.495917 -4.508215 -0.686556 8.480757 -16.968245 -7.203061 -3.631082 -0.297540 0.236092 0.000000 0.000000 0.000000 5.953504 2.754876 -2.744384 -75.065474 -17.131734 22.155304 -179.251717 -63.060749 179.788529 24.437952 -24.080310 -5.801743 -0.810360 1.535795 -0.000000 0.000000 0.000000 0.000000 0.000000 0.000000 0.000000 7.790286 -14.257443 -1.951321 70.804094 -12.644983 25.513381 -179.720254 72.423590 179.887922 -14.631946 30.093066 -4.143280 0.186111 -0.990502 -0.000000 0.000000 0.000000 0.000000 0.000000 0.000000 0.000000 
10.902874 17.634221 0.657185 148.367484 85.881651 163.219796 -0.529969 -4.703562 -8.670711 -0.010535 -4.780669 -4.395112 -5.254770 -4.812605 -0.724247 8.131342 -17.502737 -7.148685 -3.524856 -0.290311 0.260314 0.000000 0.000000 0.000000 6.058187 2.104981 -2.752705 -75.665651 -16.880842 22.988995 -179.304842 -62.960686 179.793707 23.595396 -23.890289 -5.557420 -0.792125 1.545313 -0.000000 0.000000 0.000000 0.000000 0.000000 0.000000 0.000000 6.931994 -14.939554 -1.940015 69.651859 -13.334487 25.526540 -179.759215 71.780559 179.890278 -14.381140 29.900622 -4.044271 0.183280 -0.983786 -0.000000 0.000000 0.000000 0.000000 0.000000 0.000000 0.000000 
11.154468 17.748522 0.657080 157.786648 86.357910 172.314913 0.291248 -4.884364 -8.544713 0.217562 -5.029058 -4.418704 -5.010646 -5.082362 -0.789349 7.797048 -17.996148 -7.080996 -3.419210 -0.283214 0.286845 0.000000 0.000000 0.000000 6.241286 1.441750 -2.772275 -76.365293 -16.491613 23.753983 -179.380833 -62.866533 179.798648 22.696553 -23.621440 -5.284443 -0.768761 1.550280 -0.000000 0.000000 0.000000 0.000000 0.000000 0.000000 0.000000 6.073318 -15.549070 -1.915577 68.513786 -13.987598 25.497398 -179.791667 71.104040 179.892209 -14.187895 29.702351 -3.962145 0.181853 -0.978482 -0.000000 0.000000 0.000000 0.000000 0.000000 0.000000 0.000000 
11.405789 17.853288 0.659613 167.705229 86.739587 -178.095893 0.983219 -5.060654 -8.377331 0.419866 -5.255685 -4.442724 -4.764911 -5.330745 -0.878690 7.490949 -18.441098 -7.003131 -3.314954 -0.276310 0.314956 0.000000 0.000000 0.000000 6.512800 0.769761 -2.804494 -77.146182 -15.989145 24.455849 -179.476407 -62.776786 179.803160 21.770852 -23.278102 -4.993315 -0.741169 1.550717 -0.000000 0.000000 0.000000 0.000000 0.000000 0.000000 0.000000 5.235817 -16.083689 -1.883487 67.392721 -14.629928 25.425809 -179.815446 70.380586 179.893611 -14.068996 29.511196 -3.902991 0.182110 -0.974989 -0.000000 0.000000 0.000000 0.000000 0.000000 0.000000 0.000000 
11.657126 17.947097 0.666113 176.823026 86.969444 -169.293721 1.487306 -5.258540 -8.191275 0.592543 -5.483823 -4.469863 -4.515069 -5.583110 -0.999203 7.217321 -18.838342 -6.909508 -3.213989 -0.269913 0.346720 0.000000 0.000000 0.000000 6.890224 0.029436 -2.852721 -77.992784 -15.327756 25.061341 -179.597067 -62.657144 179.807007 20.830141 -22.880912 -4.693419 -0.709100 1.547413 -0.000000 0.000000 0.000000 0.000000 0.000000 0.000000 0.000000 4.428306 -16.554765 -1.844897 66.292258 -15.284964 25.321218 -179.830079 69.609875 179.894490 -14.032592 29.339055 -3.870207 0.184194 -0.973325 -0.000000 0.000000 0.000000 0.000000 0.000000 0.000000 0.000000 
11.908527 18.029072 0.676831 -175.742546 87.051029 -162.155590 1.823039 -5.484831 -7.997791 0.739138 -5.725411 -4.499573 -4.267518 -5.851167 -1.148504 6.981152 -19.182524 -6.802336 -3.118301 -0.264165 0.381767 0.000000 0.000000 0.000000 7.352628 -0.769795 -2.911013 -78.877441 -14.544929 25.582935 -179.736440 -62.511774 179.810252 19.904590 -22.445406 -4.396415 -0.674170 1.541013 -0.000000 0.000000 0.000000 0.000000 0.000000 0.000000 0.000000 3.669275 -16.961787 -1.805828 65.208243 -15.969126 25.185632 -179.835900 68.788613 179.894867 -14.077314 29.190557 -3.863595 0.188081 -0.973455 -0.000000 0.000000 0.000000 0.000000 0.000000 0.000000 0.000000 
12.159829 18.098758 0.691459 -170.276955 87.036516 -156.968460 2.030484 -5.729623 -7.802174 0.861486 -5.975485 -4.530038 -4.031322 -6.127936 -1.318202 6.786757 -19.472618 -6.689327 -3.029287 -0.259062 0.418077 0.000000 0.000000 0.000000 7.863404 -1.586703 -2.971794 -79.768893 -13.703649 26.049718 -179.885256 -62.362479 179.813061 19.027595 -21.989260 -4.113964 -0.638484 1.532086 -0.000000 0.000000 0.000000 0.000000 0.000000 0.000000 0.000000 2.978847 -17.301434 -1.771586 64.136328 -16.680270 25.022640 -179.834730 67.919774 179.894849 -14.193931 29.063812 -3.880058 0.193733 -0.975260 -0.000000 0.000000 0.000000 0.000000 0.000000 0.000000 0.000000 
12.411035 18.156093 0.709470 -166.675608 86.981279 -153.629351 2.136442 -5.980885 -7.609797 0.959711 -6.224045 -4.563038 -3.810099 -6.401924 -1.512603 6.628150 -19.710408 -6.566524 -2.949171 -0.254839 0.457044 0.000000 0.000000 0.000000 8.396687 -2.446610 -3.032291 -80.644673 -12.783170 26.441650 179.952533 -62.196003 179.815387 18.206391 -21.535702 -3.851747 -0.602258 1.521473 -0.000000 0.000000 0.000000 0.000000 0.000000 0.000000 0.000000 2.357406 -17.569805 -1.737446 63.082343 -17.414209 24.836461 -179.830306 67.020711 179.894654 -14.361357 28.960226 -3.913798 0.200900 -0.978496 -0.000000 0.000000 0.000000 0.000000 0.000000 0.000000 0.000000 
12.661875 18.201331 0.729907 -164.561363 86.921204 -151.770241 2.165152 -6.227938 -7.418186 1.034862 -6.462236 -4.595793 -3.610254 -6.662980 -1.722271 6.505453 -19.901376 -6.440434 -2.879119 -0.251469 0.496801 0.000000 0.000000 0.000000 8.909981 -3.315048 -3.085740 -81.478449 -11.835150 26.783049 179.785643 -62.038266 179.817382 17.459681 -21.101470 -3.615743 -0.567094 1.509768 -0.000000 0.000000 0.000000 0.000000 0.000000 0.000000 0.000000 1.818266 -17.771621 -1.704813 62.050548 -18.151102 24.626679 -179.825425 66.109595 179.894454 -14.554380 28.874857 -3.957119 0.209145 -0.982846 -0.000000 0.000000 0.000000 0.000000 0.000000 0.000000 0.000000 
